<mxfile host="app.diagrams.net" agent="Mozilla/5.0 (Windows NT 10.0; Win64; x64) AppleWebKit/537.36 (KHTML, like Gecko) Chrome/139.0.0.0 Safari/537.36" version="28.1.1">
  <diagram name="Page-1" id="WR1Ald4MIgd_ODExJey_">
    <mxGraphModel dx="2194" dy="1195" grid="1" gridSize="10" guides="1" tooltips="1" connect="1" arrows="1" fold="1" page="1" pageScale="1" pageWidth="827" pageHeight="1169" math="0" shadow="0">
      <root>
        <mxCell id="0" />
        <mxCell id="1" parent="0" />
        <mxCell id="cDUhBw_cX3cxNpGNWJYd-1" value="Student Information System" style="rounded=0;whiteSpace=wrap;html=1;fillColor=#60a917;fontColor=#ffffff;strokeColor=#2D7600;" vertex="1" parent="1">
          <mxGeometry x="180" y="50" width="432" height="50" as="geometry" />
        </mxCell>
        <mxCell id="cDUhBw_cX3cxNpGNWJYd-2" value="login to&lt;div&gt;system&lt;/div&gt;" style="ellipse;whiteSpace=wrap;html=1;aspect=fixed;fillColor=#d80073;fontColor=#ffffff;strokeColor=#A50040;" vertex="1" parent="1">
          <mxGeometry x="320" y="150" width="80" height="80" as="geometry" />
        </mxCell>
        <mxCell id="cDUhBw_cX3cxNpGNWJYd-3" value="check roles&lt;div&gt;of access&lt;/div&gt;" style="ellipse;whiteSpace=wrap;html=1;aspect=fixed;fillColor=#a20025;fontColor=#ffffff;strokeColor=#6F0000;" vertex="1" parent="1">
          <mxGeometry x="450" y="150" width="80" height="80" as="geometry" />
        </mxCell>
        <mxCell id="cDUhBw_cX3cxNpGNWJYd-5" value="Manage&amp;nbsp;&lt;div&gt;modules&lt;/div&gt;" style="ellipse;whiteSpace=wrap;html=1;aspect=fixed;fillColor=#d80073;fontColor=#ffffff;strokeColor=#A50040;" vertex="1" parent="1">
          <mxGeometry x="450" y="280" width="80" height="80" as="geometry" />
        </mxCell>
        <mxCell id="cDUhBw_cX3cxNpGNWJYd-6" value="Admin" style="rounded=0;whiteSpace=wrap;html=1;fillColor=#0050ef;fontColor=#ffffff;strokeColor=#001DBC;" vertex="1" parent="1">
          <mxGeometry x="90" y="175" width="150" height="30" as="geometry" />
        </mxCell>
        <mxCell id="cDUhBw_cX3cxNpGNWJYd-7" value="forgot password" style="ellipse;whiteSpace=wrap;html=1;aspect=fixed;fillColor=#1ba1e2;fontColor=#ffffff;strokeColor=#006EAF;" vertex="1" parent="1">
          <mxGeometry x="125" y="260" width="80" height="80" as="geometry" />
        </mxCell>
        <mxCell id="cDUhBw_cX3cxNpGNWJYd-8" value="send email to user" style="ellipse;whiteSpace=wrap;html=1;aspect=fixed;fillColor=#6a00ff;fontColor=#ffffff;strokeColor=#3700CC;" vertex="1" parent="1">
          <mxGeometry x="125" y="390" width="80" height="80" as="geometry" />
        </mxCell>
        <mxCell id="cDUhBw_cX3cxNpGNWJYd-10" value="Manage Timetable Details" style="rounded=0;whiteSpace=wrap;html=1;fillColor=#d80073;fontColor=#ffffff;strokeColor=#A50040;" vertex="1" parent="1">
          <mxGeometry x="612" y="160" width="178" height="40" as="geometry" />
        </mxCell>
        <mxCell id="cDUhBw_cX3cxNpGNWJYd-11" value="Manage Attendences" style="rounded=0;whiteSpace=wrap;html=1;fillColor=#1ba1e2;fontColor=#ffffff;strokeColor=#006EAF;" vertex="1" parent="1">
          <mxGeometry x="612" y="220" width="178" height="40" as="geometry" />
        </mxCell>
        <mxCell id="cDUhBw_cX3cxNpGNWJYd-12" value="Manage details" style="rounded=0;whiteSpace=wrap;html=1;fillColor=#d80073;fontColor=#ffffff;strokeColor=#A50040;" vertex="1" parent="1">
          <mxGeometry x="612" y="280" width="178" height="40" as="geometry" />
        </mxCell>
        <mxCell id="cDUhBw_cX3cxNpGNWJYd-38" value="" style="edgeStyle=orthogonalEdgeStyle;rounded=0;orthogonalLoop=1;jettySize=auto;html=1;" edge="1" parent="1" target="cDUhBw_cX3cxNpGNWJYd-16">
          <mxGeometry relative="1" as="geometry">
            <mxPoint x="701" y="440" as="sourcePoint" />
          </mxGeometry>
        </mxCell>
        <mxCell id="cDUhBw_cX3cxNpGNWJYd-15" value="Manage fee deatils" style="rounded=0;whiteSpace=wrap;html=1;fillColor=#6a00ff;fontColor=#ffffff;strokeColor=#3700CC;" vertex="1" parent="1">
          <mxGeometry x="612" y="470" width="178" height="40" as="geometry" />
        </mxCell>
        <mxCell id="cDUhBw_cX3cxNpGNWJYd-16" value="Manage reports" style="rounded=0;whiteSpace=wrap;html=1;fillColor=#1ba1e2;fontColor=#ffffff;strokeColor=#006EAF;" vertex="1" parent="1">
          <mxGeometry x="612" y="530" width="178" height="40" as="geometry" />
        </mxCell>
        <mxCell id="cDUhBw_cX3cxNpGNWJYd-17" value="Manage system Admins" style="rounded=0;whiteSpace=wrap;html=1;fillColor=#60a917;fontColor=#ffffff;strokeColor=#2D7600;" vertex="1" parent="1">
          <mxGeometry x="20" y="580" width="178" height="40" as="geometry" />
        </mxCell>
        <mxCell id="cDUhBw_cX3cxNpGNWJYd-18" value="manage roles of users" style="rounded=0;whiteSpace=wrap;html=1;fillColor=#6a00ff;fontColor=#ffffff;strokeColor=#3700CC;" vertex="1" parent="1">
          <mxGeometry x="222" y="580" width="178" height="40" as="geometry" />
        </mxCell>
        <mxCell id="cDUhBw_cX3cxNpGNWJYd-19" value="manage user permission" style="rounded=0;whiteSpace=wrap;html=1;fillColor=#d80073;fontColor=#ffffff;strokeColor=#A50040;" vertex="1" parent="1">
          <mxGeometry x="434" y="580" width="178" height="40" as="geometry" />
        </mxCell>
        <mxCell id="cDUhBw_cX3cxNpGNWJYd-20" value="" style="endArrow=classic;html=1;rounded=0;entryX=0.371;entryY=0.048;entryDx=0;entryDy=0;entryPerimeter=0;" edge="1" parent="1">
          <mxGeometry width="50" height="50" relative="1" as="geometry">
            <mxPoint x="160" y="210" as="sourcePoint" />
            <mxPoint x="159.83999999999995" y="259.99999999999994" as="targetPoint" />
          </mxGeometry>
        </mxCell>
        <mxCell id="cDUhBw_cX3cxNpGNWJYd-22" value="" style="endArrow=classic;html=1;rounded=0;entryX=0.5;entryY=0;entryDx=0;entryDy=0;exitX=0.5;exitY=1;exitDx=0;exitDy=0;" edge="1" parent="1" source="cDUhBw_cX3cxNpGNWJYd-7" target="cDUhBw_cX3cxNpGNWJYd-8">
          <mxGeometry width="50" height="50" relative="1" as="geometry">
            <mxPoint x="165" y="350" as="sourcePoint" />
            <mxPoint x="169.83999999999995" y="269.99999999999994" as="targetPoint" />
          </mxGeometry>
        </mxCell>
        <mxCell id="cDUhBw_cX3cxNpGNWJYd-23" value="" style="endArrow=classic;html=1;rounded=0;exitX=1;exitY=0.5;exitDx=0;exitDy=0;entryX=0;entryY=0.5;entryDx=0;entryDy=0;" edge="1" parent="1" source="cDUhBw_cX3cxNpGNWJYd-6" target="cDUhBw_cX3cxNpGNWJYd-2">
          <mxGeometry width="50" height="50" relative="1" as="geometry">
            <mxPoint x="260" y="400" as="sourcePoint" />
            <mxPoint x="310" y="350" as="targetPoint" />
          </mxGeometry>
        </mxCell>
        <mxCell id="cDUhBw_cX3cxNpGNWJYd-24" value="" style="endArrow=classic;html=1;rounded=0;exitX=0.5;exitY=1;exitDx=0;exitDy=0;entryX=0.5;entryY=0;entryDx=0;entryDy=0;" edge="1" parent="1" source="cDUhBw_cX3cxNpGNWJYd-2">
          <mxGeometry width="50" height="50" relative="1" as="geometry">
            <mxPoint x="330" y="400" as="sourcePoint" />
            <mxPoint x="360" y="280" as="targetPoint" />
          </mxGeometry>
        </mxCell>
        <mxCell id="cDUhBw_cX3cxNpGNWJYd-25" value="" style="endArrow=classic;html=1;rounded=0;" edge="1" parent="1" target="cDUhBw_cX3cxNpGNWJYd-3">
          <mxGeometry width="50" height="50" relative="1" as="geometry">
            <mxPoint x="388.2842712474619" y="291.71572875253787" as="sourcePoint" />
            <mxPoint x="450" y="350" as="targetPoint" />
          </mxGeometry>
        </mxCell>
        <mxCell id="cDUhBw_cX3cxNpGNWJYd-26" value="" style="endArrow=classic;html=1;rounded=0;exitX=0.5;exitY=1;exitDx=0;exitDy=0;entryX=0.5;entryY=0;entryDx=0;entryDy=0;" edge="1" parent="1" source="cDUhBw_cX3cxNpGNWJYd-3" target="cDUhBw_cX3cxNpGNWJYd-5">
          <mxGeometry width="50" height="50" relative="1" as="geometry">
            <mxPoint x="400" y="460" as="sourcePoint" />
            <mxPoint x="450" y="410" as="targetPoint" />
          </mxGeometry>
        </mxCell>
        <mxCell id="cDUhBw_cX3cxNpGNWJYd-27" value="" style="endArrow=classic;html=1;rounded=0;exitX=0.308;exitY=0.965;exitDx=0;exitDy=0;exitPerimeter=0;entryX=0.75;entryY=0;entryDx=0;entryDy=0;" edge="1" parent="1" target="cDUhBw_cX3cxNpGNWJYd-17">
          <mxGeometry width="50" height="50" relative="1" as="geometry">
            <mxPoint x="344.64" y="357.1999999999998" as="sourcePoint" />
            <mxPoint x="340" y="540" as="targetPoint" />
          </mxGeometry>
        </mxCell>
        <mxCell id="cDUhBw_cX3cxNpGNWJYd-28" value="" style="endArrow=classic;html=1;rounded=0;exitX=0.5;exitY=1;exitDx=0;exitDy=0;entryX=0.422;entryY=-0.071;entryDx=0;entryDy=0;entryPerimeter=0;" edge="1" parent="1" target="cDUhBw_cX3cxNpGNWJYd-18">
          <mxGeometry width="50" height="50" relative="1" as="geometry">
            <mxPoint x="360" y="360" as="sourcePoint" />
            <mxPoint x="300" y="560" as="targetPoint" />
          </mxGeometry>
        </mxCell>
        <mxCell id="cDUhBw_cX3cxNpGNWJYd-29" value="" style="endArrow=classic;html=1;rounded=0;entryX=0.09;entryY=0;entryDx=0;entryDy=0;entryPerimeter=0;exitX=1;exitY=1;exitDx=0;exitDy=0;" edge="1" parent="1" target="cDUhBw_cX3cxNpGNWJYd-19">
          <mxGeometry width="50" height="50" relative="1" as="geometry">
            <mxPoint x="388.2842712474619" y="348.28427124746213" as="sourcePoint" />
            <mxPoint x="370" y="410" as="targetPoint" />
          </mxGeometry>
        </mxCell>
        <mxCell id="cDUhBw_cX3cxNpGNWJYd-30" value="" style="endArrow=classic;html=1;rounded=0;entryX=0;entryY=0.5;entryDx=0;entryDy=0;" edge="1" parent="1" source="cDUhBw_cX3cxNpGNWJYd-5" target="cDUhBw_cX3cxNpGNWJYd-10">
          <mxGeometry width="50" height="50" relative="1" as="geometry">
            <mxPoint x="610" y="170" as="sourcePoint" />
            <mxPoint x="550" y="230" as="targetPoint" />
          </mxGeometry>
        </mxCell>
        <mxCell id="cDUhBw_cX3cxNpGNWJYd-31" value="" style="endArrow=classic;html=1;rounded=0;" edge="1" parent="1">
          <mxGeometry width="50" height="50" relative="1" as="geometry">
            <mxPoint x="526" y="300" as="sourcePoint" />
            <mxPoint x="610" y="240" as="targetPoint" />
          </mxGeometry>
        </mxCell>
        <mxCell id="cDUhBw_cX3cxNpGNWJYd-33" value="" style="endArrow=classic;html=1;rounded=0;exitX=1.038;exitY=0.381;exitDx=0;exitDy=0;exitPerimeter=0;" edge="1" parent="1" source="cDUhBw_cX3cxNpGNWJYd-5">
          <mxGeometry width="50" height="50" relative="1" as="geometry">
            <mxPoint x="536" y="310" as="sourcePoint" />
            <mxPoint x="610" y="300" as="targetPoint" />
          </mxGeometry>
        </mxCell>
        <mxCell id="cDUhBw_cX3cxNpGNWJYd-34" value="" style="endArrow=classic;html=1;rounded=0;entryX=0;entryY=0.25;entryDx=0;entryDy=0;exitX=1.027;exitY=0.423;exitDx=0;exitDy=0;exitPerimeter=0;" edge="1" parent="1" source="cDUhBw_cX3cxNpGNWJYd-5">
          <mxGeometry width="50" height="50" relative="1" as="geometry">
            <mxPoint x="540" y="320" as="sourcePoint" />
            <mxPoint x="612" y="350" as="targetPoint" />
          </mxGeometry>
        </mxCell>
        <mxCell id="cDUhBw_cX3cxNpGNWJYd-35" value="" style="endArrow=classic;html=1;rounded=0;entryX=0;entryY=0.25;entryDx=0;entryDy=0;exitX=0.975;exitY=0.652;exitDx=0;exitDy=0;exitPerimeter=0;" edge="1" parent="1" source="cDUhBw_cX3cxNpGNWJYd-5">
          <mxGeometry width="50" height="50" relative="1" as="geometry">
            <mxPoint x="542" y="324" as="sourcePoint" />
            <mxPoint x="612" y="410" as="targetPoint" />
          </mxGeometry>
        </mxCell>
        <mxCell id="cDUhBw_cX3cxNpGNWJYd-36" value="" style="endArrow=classic;html=1;rounded=0;entryX=0;entryY=0.5;entryDx=0;entryDy=0;exitX=1;exitY=1;exitDx=0;exitDy=0;" edge="1" parent="1" source="cDUhBw_cX3cxNpGNWJYd-5" target="cDUhBw_cX3cxNpGNWJYd-15">
          <mxGeometry width="50" height="50" relative="1" as="geometry">
            <mxPoint x="538" y="342" as="sourcePoint" />
            <mxPoint x="622" y="420" as="targetPoint" />
          </mxGeometry>
        </mxCell>
        <mxCell id="cDUhBw_cX3cxNpGNWJYd-37" value="" style="endArrow=classic;html=1;rounded=0;exitX=0.788;exitY=0.965;exitDx=0;exitDy=0;exitPerimeter=0;" edge="1" parent="1" source="cDUhBw_cX3cxNpGNWJYd-5">
          <mxGeometry width="50" height="50" relative="1" as="geometry">
            <mxPoint x="528" y="358" as="sourcePoint" />
            <mxPoint x="610" y="550" as="targetPoint" />
          </mxGeometry>
        </mxCell>
        <mxCell id="cDUhBw_cX3cxNpGNWJYd-41" style="edgeStyle=orthogonalEdgeStyle;rounded=0;orthogonalLoop=1;jettySize=auto;html=1;exitX=1;exitY=0.75;exitDx=0;exitDy=0;" edge="1" parent="1" source="cDUhBw_cX3cxNpGNWJYd-40">
          <mxGeometry relative="1" as="geometry">
            <mxPoint x="810" y="370.3684210526317" as="targetPoint" />
          </mxGeometry>
        </mxCell>
        <mxCell id="cDUhBw_cX3cxNpGNWJYd-40" value="Manage details" style="rounded=0;whiteSpace=wrap;html=1;fillColor=#0050ef;fontColor=#ffffff;strokeColor=#001DBC;" vertex="1" parent="1">
          <mxGeometry x="610" y="340" width="178" height="40" as="geometry" />
        </mxCell>
        <mxCell id="cDUhBw_cX3cxNpGNWJYd-42" style="edgeStyle=orthogonalEdgeStyle;rounded=0;orthogonalLoop=1;jettySize=auto;html=1;exitX=1;exitY=0.25;exitDx=0;exitDy=0;" edge="1" parent="1" source="cDUhBw_cX3cxNpGNWJYd-40" target="cDUhBw_cX3cxNpGNWJYd-40">
          <mxGeometry relative="1" as="geometry" />
        </mxCell>
        <mxCell id="cDUhBw_cX3cxNpGNWJYd-44" value="Manage student details" style="rounded=0;whiteSpace=wrap;html=1;fillColor=#008a00;fontColor=#ffffff;strokeColor=#005700;" vertex="1" parent="1">
          <mxGeometry x="610" y="400" width="178" height="40" as="geometry" />
        </mxCell>
        <mxCell id="cDUhBw_cX3cxNpGNWJYd-46" value="check&lt;div&gt;credentials&lt;/div&gt;" style="ellipse;whiteSpace=wrap;html=1;aspect=fixed;fillColor=#d80073;fontColor=#ffffff;strokeColor=#A50040;" vertex="1" parent="1">
          <mxGeometry x="320" y="280" width="80" height="80" as="geometry" />
        </mxCell>
      </root>
    </mxGraphModel>
  </diagram>
</mxfile>
